<svg width="40" height="40" viewBox="0 0 40 40" fill="none" xmlns="http://www.w3.org/2000/svg">
<path d="M5.83333 35C5.16666 35 4.58333 34.75 4.08333 34.25C3.58333 33.75 3.33333 33.1667 3.33333 32.5V12.5C3.33333 11.8333 3.58333 11.25 4.08333 10.75C4.58333 10.25 5.16666 10 5.83333 10H13.3333V5.83334C13.3333 5.16668 13.5833 4.58334 14.0833 4.08334C14.5833 3.58334 15.1667 3.33334 15.8333 3.33334H24.1667C24.8333 3.33334 25.4167 3.58334 25.9167 4.08334C26.4167 4.58334 26.6667 5.16668 26.6667 5.83334V10H34.1667C34.8333 10 35.4167 10.25 35.9167 10.75C36.4167 11.25 36.6667 11.8333 36.6667 12.5V32.5C36.6667 33.1667 36.4167 33.75 35.9167 34.25C35.4167 34.75 34.8333 35 34.1667 35H5.83333ZM15.8333 10H24.1667V5.83334H15.8333V10ZM34.1667 24.5417H23.7917V27.0417H16.2917V24.5417H5.83333V32.5H34.1667V24.5417ZM18.7917 24.5417H21.2917V22.0417H18.7917V24.5417ZM5.83333 22.0417H16.2917V19.5417H23.7917V22.0417H34.1667V12.5H5.83333V22.0417Z" fill="white"/>
</svg>
