<svg width="40" height="40" viewBox="0 0 40 40" fill="none" xmlns="http://www.w3.org/2000/svg">
<rect width="40" height="40" rx="20" fill="#A5B3CE" fill-opacity="0.1"/>
<path fill-rule="evenodd" clip-rule="evenodd" d="M20.2969 8C13.5072 8 8 13.5072 8 20.2969C8 25.7286 11.5457 30.3305 16.374 31.9902C16.9775 32.0657 17.2038 31.6885 17.2038 31.3867C17.2038 31.0849 17.2038 30.3305 17.2038 29.2744C13.809 30.0288 13.0545 27.6147 13.0545 27.6147C12.5265 26.1813 11.6966 25.8041 11.6966 25.8041C10.565 25.0497 11.7721 25.0497 11.7721 25.0497C12.9791 25.1251 13.6581 26.3322 13.6581 26.3322C14.7897 28.2182 16.5248 27.6901 17.2038 27.3883C17.2792 26.5585 17.6564 26.0304 17.9582 25.7286C15.2423 25.4269 12.3756 24.3707 12.3756 19.6179C12.3756 18.26 12.8282 17.2038 13.6581 16.2985C13.5826 16.0722 13.13 14.7897 13.809 13.13C13.809 13.13 14.8651 12.8282 17.2038 14.4125C18.1845 14.1107 19.2407 14.0353 20.2969 14.0353C21.3531 14.0353 22.4092 14.1862 23.39 14.4125C25.7286 12.8282 26.7848 13.13 26.7848 13.13C27.4638 14.7897 27.0111 16.0722 26.9357 16.374C27.6901 17.2038 28.2182 18.3354 28.2182 19.6934C28.2182 24.4461 25.3514 25.4269 22.6356 25.7286C23.0882 26.1058 23.4654 26.8603 23.4654 27.9919C23.4654 29.6516 23.4654 30.9341 23.4654 31.3867C23.4654 31.6885 23.6917 32.0657 24.2953 31.9902C29.1989 30.3305 32.6692 25.7286 32.6692 20.2969C32.5938 13.5072 27.0866 8 20.2969 8Z" fill="#A5B3CE"/>
</svg>
