<svg width="40" height="40" viewBox="0 0 40 40" fill="none" xmlns="http://www.w3.org/2000/svg">
<path d="M16.1667 36.6667L15.3333 31.4167C14.8056 31.2222 14.25 30.9583 13.6667 30.625C13.0833 30.2917 12.5694 29.9445 12.125 29.5833L7.20833 31.8333L3.33333 25L7.83333 21.7083C7.77778 21.4583 7.74305 21.1736 7.72917 20.8542C7.71528 20.5347 7.70833 20.25 7.70833 20C7.70833 19.75 7.71528 19.4653 7.72917 19.1458C7.74305 18.8264 7.77778 18.5417 7.83333 18.2917L3.33333 15L7.20833 8.16668L12.125 10.4167C12.5694 10.0556 13.0833 9.70834 13.6667 9.37501C14.25 9.04168 14.8056 8.79168 15.3333 8.62501L16.1667 3.33334H23.8333L24.6667 8.58334C25.1944 8.77779 25.7569 9.03473 26.3542 9.35418C26.9514 9.67362 27.4583 10.0278 27.875 10.4167L32.7917 8.16668L36.6667 15L32.1667 18.2083C32.2222 18.4861 32.2569 18.7847 32.2708 19.1042C32.2847 19.4236 32.2917 19.7222 32.2917 20C32.2917 20.2778 32.2847 20.5695 32.2708 20.875C32.2569 21.1806 32.2222 21.4722 32.1667 21.75L36.6667 25L32.7917 31.8333L27.875 29.5833C27.4306 29.9445 26.9236 30.2986 26.3542 30.6458C25.7847 30.9931 25.2222 31.25 24.6667 31.4167L23.8333 36.6667H16.1667ZM20 25.4167C21.5 25.4167 22.7778 24.8889 23.8333 23.8333C24.8889 22.7778 25.4167 21.5 25.4167 20C25.4167 18.5 24.8889 17.2222 23.8333 16.1667C22.7778 15.1111 21.5 14.5833 20 14.5833C18.5 14.5833 17.2222 15.1111 16.1667 16.1667C15.1111 17.2222 14.5833 18.5 14.5833 20C14.5833 21.5 15.1111 22.7778 16.1667 23.8333C17.2222 24.8889 18.5 25.4167 20 25.4167ZM20 22.9167C19.1944 22.9167 18.5069 22.632 17.9375 22.0625C17.3681 21.4931 17.0833 20.8056 17.0833 20C17.0833 19.1945 17.3681 18.507 17.9375 17.9375C18.5069 17.3681 19.1944 17.0833 20 17.0833C20.8056 17.0833 21.4931 17.3681 22.0625 17.9375C22.6319 18.507 22.9167 19.1945 22.9167 20C22.9167 20.8056 22.6319 21.4931 22.0625 22.0625C21.4931 22.632 20.8056 22.9167 20 22.9167ZM18.1667 34.1667H21.8333L22.4167 29.5C23.3333 29.2778 24.2014 28.9306 25.0208 28.4583C25.8403 27.9861 26.5833 27.4167 27.25 26.75L31.6667 28.6667L33.3333 25.6667L29.4167 22.7917C29.5278 22.3195 29.6181 21.8542 29.6875 21.3958C29.7569 20.9375 29.7917 20.4722 29.7917 20C29.7917 19.5278 29.7639 19.0625 29.7083 18.6042C29.6528 18.1458 29.5556 17.6806 29.4167 17.2083L33.3333 14.3333L31.6667 11.3333L27.25 13.25C26.6111 12.5278 25.8889 11.9236 25.0833 11.4375C24.2778 10.9514 23.3889 10.6389 22.4167 10.5L21.8333 5.83334H18.1667L17.5833 10.5C16.6389 10.6945 15.7569 11.0278 14.9375 11.5C14.1181 11.9722 13.3889 12.5556 12.75 13.25L8.33333 11.3333L6.66667 14.3333L10.5833 17.2083C10.4722 17.6806 10.3819 18.1458 10.3125 18.6042C10.2431 19.0625 10.2083 19.5278 10.2083 20C10.2083 20.4722 10.2431 20.9375 10.3125 21.3958C10.3819 21.8542 10.4722 22.3195 10.5833 22.7917L6.66667 25.6667L8.33333 28.6667L12.75 26.75C13.4167 27.4167 14.1597 27.9861 14.9792 28.4583C15.7986 28.9306 16.6667 29.2778 17.5833 29.5L18.1667 34.1667Z" fill="white"/>
</svg>
