<svg width="40" height="40" viewBox="0 0 40 40" fill="none" xmlns="http://www.w3.org/2000/svg">
<rect width="40" height="40" rx="20" fill="#A5B3CE" fill-opacity="0.1"/>
<path d="M29 20.3274V26.2108H25.5561V20.6861C25.5561 19.3229 25.0538 18.3901 23.8341 18.3901C22.9013 18.3901 22.3274 19.0359 22.1121 19.6099C22.0404 19.8251 21.9686 20.1121 21.9686 20.4709V26.2108H18.5247C18.5247 26.2108 18.5964 16.8834 18.5247 15.9507H21.9686V17.3857C22.3991 16.6682 23.2601 15.6637 25.0538 15.6637C27.278 15.6637 29 17.1704 29 20.3274ZM14.9372 11C13.7892 11 13 11.7892 13 12.7937C13 13.7982 13.7175 14.5874 14.8655 14.5874C16.0852 14.5874 16.8027 13.7982 16.8027 12.7937C16.8744 11.7175 16.1569 11 14.9372 11ZM13.2152 26.2108H16.6592V15.9507H13.2152V26.2108Z" fill="#A5B3CE"/>
</svg>
