<svg width="40" height="40" viewBox="0 0 40 40" fill="none" xmlns="http://www.w3.org/2000/svg">
<path d="M19.7917 36.6667L27.3333 16.6667H30.75L38.5 36.6667H34.875L33.1667 31.4167H25.1667L23.2083 36.6667H19.7917ZM26.0833 28.5H32L29.0833 20.4167H29L26.0833 28.5ZM6.66667 31.6667L4.37501 29.375L12.875 20.875C11.8194 19.6528 10.8819 18.4236 10.0625 17.1875C9.24306 15.9514 8.52778 14.6667 7.91667 13.3333H11.5417C12.0139 14.25 12.5347 15.1181 13.1042 15.9375C13.6736 16.757 14.3194 17.5972 15.0417 18.4583C16.2917 17.1528 17.3333 15.7986 18.1667 14.3958C19 12.9931 19.7083 11.5278 20.2917 10H1.66667V6.66668H13.3333V3.33334H16.6667V6.66668H28.3333V10H23.625C23.0139 11.9167 22.2014 13.7986 21.1875 15.6458C20.1736 17.4931 18.9306 19.25 17.4583 20.9167L21.5417 25.0417L20.2917 28.4167L15 23.3333L6.66667 31.6667Z" fill="white"/>
</svg>
