<svg width="40" height="40" viewBox="0 0 40 40" fill="none" xmlns="http://www.w3.org/2000/svg">
<path d="M5.83334 33.3333C5.16667 33.3333 4.58334 33.0833 4.08334 32.5833C3.58334 32.0833 3.33334 31.5 3.33334 30.8333V9.16666C3.33334 8.5 3.58334 7.91666 4.08334 7.41666C4.58334 6.91666 5.16667 6.66666 5.83334 6.66666H34.1667C34.8333 6.66666 35.4167 6.91666 35.9167 7.41666C36.4167 7.91666 36.6667 8.5 36.6667 9.16666V30.8333C36.6667 31.5 36.4167 32.0833 35.9167 32.5833C35.4167 33.0833 34.8333 33.3333 34.1667 33.3333H5.83334ZM20 20.75L5.83334 11.4583V30.8333H34.1667V11.4583L20 20.75ZM20 18.25L34 9.16666H6.04167L20 18.25ZM5.83334 11.4583V9.16666V30.8333V11.4583Z" fill="#A5B3CE"/>
</svg>
