<svg width="40" height="40" viewBox="0 0 40 40" fill="none" xmlns="http://www.w3.org/2000/svg">
<path d="M21.4583 18.4583V8.58334H23.9583V14.2083L33.8333 4.33334L35.625 6.125L25.7917 15.9583H31.3333V18.4583H21.4583ZM33.125 35C29.9028 35 26.6181 34.2222 23.2708 32.6667C19.9236 31.1111 16.8194 28.9028 13.9583 26.0417C11.0972 23.1806 8.88889 20.0764 7.33333 16.7292C5.77778 13.3819 5 10.0972 5 6.875C5 6.33928 5.17857 5.89285 5.53571 5.53571C5.89285 5.17857 6.33928 5 6.875 5H12.7083C13.0972 5 13.4306 5.13889 13.7083 5.41667C13.9861 5.69445 14.1806 6.04167 14.2917 6.45834L15.4137 11.6934C15.4712 12.0922 15.4653 12.4514 15.3958 12.7708C15.3264 13.0903 15.1774 13.3643 14.9488 13.5928L10.7917 17.7917C11.5139 19.0139 12.2778 20.1528 13.0833 21.2083C13.8889 22.2639 14.7778 23.2639 15.75 24.2083C16.7778 25.2639 17.8611 26.2292 19 27.1042C20.1389 27.9792 21.3333 28.75 22.5833 29.4167L26.5417 25.3333C26.8194 25.0278 27.141 24.8194 27.5063 24.7083C27.8716 24.5972 28.2306 24.5694 28.5833 24.625L33.5417 25.7083C33.9583 25.8194 34.3056 26.0423 34.5833 26.3768C34.8611 26.7114 35 27.0858 35 27.5V33.125C35 33.6607 34.8214 34.1072 34.4643 34.4643C34.1072 34.8214 33.6607 35 33.125 35ZM9.54167 15.5L12.9167 12.0833L11.9583 7.5H7.5C7.55556 8.66667 7.74306 9.89584 8.0625 11.1875C8.38194 12.4792 8.875 13.9167 9.54167 15.5ZM24.9167 30.625C26.0556 31.1528 27.2917 31.5833 28.625 31.9167C29.9583 32.25 31.25 32.4444 32.5 32.5V28.0417L28.2083 27.1667L24.9167 30.625Z" fill="#A5B3CE"/>
</svg>
