<svg width="40" height="40" viewBox="0 0 40 40" fill="none" xmlns="http://www.w3.org/2000/svg">
<path d="M20 36.6667C19.25 36.6667 18.5903 36.4861 18.0208 36.125C17.4514 35.7639 17.0833 35.2639 16.9167 34.625H16.3333C15.6667 34.625 15.0833 34.375 14.5833 33.875C14.0833 33.375 13.8333 32.7917 13.8333 32.125V26.1667C12 24.9722 10.5556 23.4445 9.5 21.5833C8.44445 19.7222 7.91667 17.6667 7.91667 15.4167C7.91667 12.0556 9.09028 9.2014 11.4375 6.85418C13.7847 4.50695 16.6389 3.33334 20 3.33334C23.3611 3.33334 26.2153 4.50695 28.5625 6.85418C30.9097 9.2014 32.0833 12.0556 32.0833 15.4167C32.0833 17.6667 31.5556 19.7222 30.5 21.5833C29.4444 23.4445 28 24.9722 26.1667 26.1667V32.125C26.1667 32.7917 25.9167 33.375 25.4167 33.875C24.9167 34.375 24.3333 34.625 23.6667 34.625H23.0833C22.9167 35.2639 22.5486 35.7639 21.9792 36.125C21.4097 36.4861 20.75 36.6667 20 36.6667ZM16.3333 32.125H23.6667V30.2917H16.3333V32.125ZM16.3333 28.625H23.6667V26.9583H16.3333V28.625ZM15.9583 24.4583H19.0417V18.75L15.2083 14.9167L16.5 13.625L20 17.125L23.5 13.625L24.7917 14.9167L20.9583 18.75V24.4583H24.0417C25.7083 23.6806 27.0486 22.4722 28.0625 20.8333C29.0764 19.1945 29.5833 17.3889 29.5833 15.4167C29.5833 12.7222 28.6597 10.4514 26.8125 8.60418C24.9653 6.75695 22.6944 5.83334 20 5.83334C17.3056 5.83334 15.0347 6.75695 13.1875 8.60418C11.3403 10.4514 10.4167 12.7222 10.4167 15.4167C10.4167 17.3889 10.9236 19.1945 11.9375 20.8333C12.9514 22.4722 14.2917 23.6806 15.9583 24.4583Z" fill="white"/>
</svg>
